<svg xmlns="http://www.w3.org/2000/svg" xmlns:xlink="http://www.w3.org/1999/xlink" viewBox="0 0 187.07 191.03"><defs><style>.cls-1{fill:#c0212b;}.cls-2,.cls-24{opacity:0.9;}.cls-3{fill:url(#linear-gradient);}.cls-4{fill:url(#linear-gradient-2);}.cls-5{fill:url(#linear-gradient-3);}.cls-6{fill:url(#linear-gradient-4);}.cls-22,.cls-7{opacity:0.4;}.cls-7{fill:url(#linear-gradient-5);}.cls-8{fill:url(#linear-gradient-6);}.cls-9{fill:url(#linear-gradient-7);}.cls-10{fill:url(#linear-gradient-8);}.cls-11{fill:url(#linear-gradient-9);}.cls-12{fill:url(#linear-gradient-10);}.cls-13{fill:url(#linear-gradient-11);}.cls-14{fill:url(#linear-gradient-12);}.cls-15{fill:url(#linear-gradient-13);}.cls-16{fill:url(#linear-gradient-14);}.cls-17{fill:url(#linear-gradient-15);}.cls-18{fill:url(#linear-gradient-16);}.cls-19{fill:url(#linear-gradient-17);}.cls-20{fill:url(#linear-gradient-18);}.cls-21{fill:url(#linear-gradient-19);}.cls-22{fill:url(#linear-gradient-20);}.cls-23{fill:#454548;}.cls-24{fill:url(#linear-gradient-21);}.cls-25{fill:url(#linear-gradient-22);}.cls-26{fill:url(#linear-gradient-23);}.cls-27{fill:url(#linear-gradient-24);}.cls-28{fill:url(#linear-gradient-25);}.cls-29{fill:url(#linear-gradient-26);}.cls-30{fill:url(#linear-gradient-27);}.cls-31{fill:url(#linear-gradient-28);}.cls-32{fill:url(#linear-gradient-29);}.cls-33{fill:url(#linear-gradient-30);}.cls-34{fill:url(#linear-gradient-31);}.cls-35{fill:url(#linear-gradient-32);}.cls-36{fill:url(#linear-gradient-33);}.cls-37{fill:url(#linear-gradient-34);}.cls-38{opacity:0.8;fill:url(#linear-gradient-35);}</style><linearGradient id="linear-gradient" x1="170.11" y1="-1057.88" x2="170.11" y2="-1056.24" gradientTransform="matrix(91, 0, 0, -37, -15303.21, -39088.35)" gradientUnits="userSpaceOnUse"><stop offset="0" stop-color="#9a161e"/><stop offset="0.27" stop-color="#a91a23"/><stop offset="0.68" stop-color="#b91f29"/><stop offset="1" stop-color="#bf212b"/></linearGradient><linearGradient id="linear-gradient-2" x1="170.11" y1="-1034.67" x2="170.11" y2="-1033.57" gradientTransform="matrix(91, 0, 0, -70, -15303.21, -72376.57)" gradientUnits="userSpaceOnUse"><stop offset="0" stop-color="#700208"/><stop offset="0.06" stop-color="#80080f"/><stop offset="0.16" stop-color="#971119"/><stop offset="0.27" stop-color="#a91821"/><stop offset="0.41" stop-color="#b61d27"/><stop offset="0.59" stop-color="#bd202a"/><stop offset="1" stop-color="#bf212b"/></linearGradient><linearGradient id="linear-gradient-3" x1="169.16" y1="-1027.49" x2="170.17" y2="-1028.5" gradientTransform="matrix(62, 0, 0, -100, -10334.56, -102771.32)" gradientUnits="userSpaceOnUse"><stop offset="0" stop-color="#700208"/><stop offset="0.23" stop-color="#8a0c13"/><stop offset="0.54" stop-color="#a71820"/><stop offset="0.81" stop-color="#b91f28"/><stop offset="1" stop-color="#bf212b"/></linearGradient><linearGradient id="linear-gradient-4" x1="170.45" y1="-1028.19" x2="170.45" y2="-1029.13" gradientTransform="matrix(72, 0, 0, -94, -12119.83, -96706.37)" gradientUnits="userSpaceOnUse"><stop offset="0" stop-color="#7f0a12"/><stop offset="0.24" stop-color="#890e16"/><stop offset="0.66" stop-color="#a41720"/><stop offset="1" stop-color="#bf212b"/></linearGradient><linearGradient id="linear-gradient-5" x1="170.12" y1="-1028.45" x2="170.12" y2="-1027.42" gradientTransform="matrix(73, 0, 0, -100, -12250.17, -102771.32)" gradientUnits="userSpaceOnUse"><stop offset="0" stop-color="#fff"/><stop offset="0.1" stop-color="#fff" stop-opacity="0.98"/><stop offset="0.19" stop-color="#fff" stop-opacity="0.94"/><stop offset="0.29" stop-color="#fff" stop-opacity="0.86"/><stop offset="0.38" stop-color="#fff" stop-opacity="0.75"/><stop offset="0.47" stop-color="#fff" stop-opacity="0.61"/><stop offset="0.57" stop-color="#fff" stop-opacity="0.44"/><stop offset="0.66" stop-color="#fff" stop-opacity="0.24"/><stop offset="0.75" stop-color="#fff" stop-opacity="0.01"/><stop offset="0.76" stop-color="#fff" stop-opacity="0"/></linearGradient><linearGradient id="linear-gradient-6" x1="169.58" y1="-1034.11" x2="169.58" y2="-1034.95" gradientTransform="matrix(53, 0, 0, -70, -8832.52, -72376.57)" gradientUnits="userSpaceOnUse"><stop offset="0" stop-color="#bf212b"/><stop offset="0.23" stop-color="#ba202a"/><stop offset="0.49" stop-color="#ac1d26"/><stop offset="0.76" stop-color="#951820"/><stop offset="1" stop-color="#7b1319"/></linearGradient><linearGradient id="linear-gradient-7" x1="170.45" y1="-1031.31" x2="170.45" y2="-1030.95" gradientTransform="matrix(72, 0, 0, -83, -12119.83, -85548.3)" gradientUnits="userSpaceOnUse"><stop offset="0" stop-color="#700208"/><stop offset="1" stop-color="#bf212b"/></linearGradient><linearGradient id="linear-gradient-8" x1="185.32" y1="-984.79" x2="186.36" y2="-985.83" gradientTransform="matrix(-53, 0, 0, 62, 9967.69, 61234.2)" xlink:href="#linear-gradient-7"/><linearGradient id="linear-gradient-9" x1="852.19" y1="-2688.68" x2="1398.53" y2="-3235.02" gradientTransform="translate(1194.16 -2948.75) rotate(180)" gradientUnits="userSpaceOnUse"><stop offset="0.77" stop-color="#d1232f"/><stop offset="1" stop-color="#62040a"/></linearGradient><linearGradient id="linear-gradient-10" x1="178.81" y1="-996.76" x2="179.85" y2="-997.8" gradientTransform="matrix(-98, 0, 0, 114, 17628.73, 113859.04)" xlink:href="#linear-gradient-7"/><linearGradient id="linear-gradient-11" x1="180.49" y1="-985.31" x2="181.46" y2="-986.28" gradientTransform="matrix(-80, 0, 0, 62, 14544.69, 61234.2)" xlink:href="#linear-gradient-7"/><linearGradient id="linear-gradient-12" x1="181.19" y1="-978.3" x2="182.1" y2="-979.12" gradientTransform="matrix(-76, 0, 0, 49, 13855.34, 48053.5)" gradientUnits="userSpaceOnUse"><stop offset="0" stop-color="#530000"/><stop offset="0.29" stop-color="#760b0e"/><stop offset="0.77" stop-color="#aa1b23"/><stop offset="1" stop-color="#bf212b"/></linearGradient><linearGradient id="linear-gradient-13" x1="185.22" y1="-997.63" x2="186.19" y2="-998.6" gradientTransform="matrix(-53, 0, 0, 121, 9838.69, 120881.87)" gradientUnits="userSpaceOnUse"><stop offset="0" stop-color="#bf212b"/><stop offset="1" stop-color="#7b1319"/></linearGradient><linearGradient id="linear-gradient-14" x1="180.48" y1="-993.81" x2="181.52" y2="-994.85" gradientTransform="matrix(-79, 0, 0, 94, 14293.35, 93562.6)" gradientUnits="userSpaceOnUse"><stop offset="0" stop-color="#700208"/><stop offset="0.06" stop-color="#840a11"/><stop offset="0.14" stop-color="#9a121a"/><stop offset="0.24" stop-color="#ab1922"/><stop offset="0.36" stop-color="#b61e27"/><stop offset="0.53" stop-color="#bd202a"/><stop offset="1" stop-color="#bf212b"/></linearGradient><linearGradient id="linear-gradient-15" x1="181.51" y1="-976.24" x2="182.41" y2="-977.15" gradientTransform="matrix(-72, 0, 0, 45, 13246, 44112.2)" gradientUnits="userSpaceOnUse"><stop offset="0" stop-color="#700208"/><stop offset="0.29" stop-color="#900e16" stop-opacity="0.92"/><stop offset="0.7" stop-color="#b31c25" stop-opacity="0.83"/><stop offset="1" stop-color="#bf212b" stop-opacity="0.8"/></linearGradient><linearGradient id="linear-gradient-16" x1="181.79" y1="-980.21" x2="182.71" y2="-981.13" gradientTransform="matrix(-72, 0, 0, 52, 13246, 51141.99)" gradientUnits="userSpaceOnUse"><stop offset="0" stop-color="#700208"/><stop offset="0.21" stop-color="#75040a"/><stop offset="0.45" stop-color="#820910"/><stop offset="0.69" stop-color="#98121a"/><stop offset="0.95" stop-color="#b71e28"/><stop offset="1" stop-color="#bf212b"/></linearGradient><linearGradient id="linear-gradient-17" x1="515.47" y1="-2579.2" x2="1144.8" y2="-3208.54" xlink:href="#linear-gradient-9"/><linearGradient id="linear-gradient-18" x1="187.85" y1="-992.58" x2="188.87" y2="-992.58" gradientTransform="matrix(-45, 0, 0, 87, 8510.94, 86426.82)" gradientUnits="userSpaceOnUse"><stop offset="0" stop-color="#9c171f"/><stop offset="1" stop-color="#bf212b" stop-opacity="0.5"/></linearGradient><linearGradient id="linear-gradient-19" x1="1092.32" y1="-2902.31" x2="1298.73" y2="-3108.72" gradientTransform="translate(1194.16 -2948.75) rotate(180)" gradientUnits="userSpaceOnUse"><stop offset="0" stop-color="#700208"/><stop offset="0.2" stop-color="#810910" stop-opacity="0.85"/><stop offset="0.55" stop-color="#af1b24" stop-opacity="0.44"/><stop offset="0.66" stop-color="#bf212b" stop-opacity="0.3"/></linearGradient><linearGradient id="linear-gradient-20" x1="-11.6" y1="150.7" x2="152.59" y2="123.85" gradientUnits="userSpaceOnUse"><stop offset="0" stop-color="#fff" stop-opacity="0"/><stop offset="0.17" stop-color="#fff" stop-opacity="0.17"/><stop offset="0.75" stop-color="#fff" stop-opacity="0.76"/><stop offset="1" stop-color="#fff"/></linearGradient><linearGradient id="linear-gradient-21" x1="1270.37" y1="-2343.14" x2="1360.4" y2="-2357.87" gradientTransform="translate(-231.78 -2643.62) rotate(143.89)" gradientUnits="userSpaceOnUse"><stop offset="0" stop-color="#fff" stop-opacity="0"/><stop offset="1" stop-color="#fff"/></linearGradient><linearGradient id="linear-gradient-22" x1="182.67" y1="224.9" x2="182.67" y2="67.33" gradientUnits="userSpaceOnUse"><stop offset="0" stop-color="#6d6e70" stop-opacity="0.6"/><stop offset="0.26" stop-color="#505152" stop-opacity="0.75"/><stop offset="0.68" stop-color="#2b2c2c" stop-opacity="0.93"/><stop offset="1" stop-color="#1e1f1e"/></linearGradient><linearGradient id="linear-gradient-23" x1="175.57" y1="-1036.44" x2="176.64" y2="-1037.51" gradientTransform="matrix(53, 0, 0, -62, -9263.52, -64244.97)" gradientUnits="userSpaceOnUse"><stop offset="0.08" stop-color="#424141"/><stop offset="1" stop-color="#1e1f1e"/></linearGradient><linearGradient id="linear-gradient-24" x1="174.03" y1="-1036.97" x2="175.01" y2="-1037.95" gradientTransform="matrix(80, 0, 0, -62, -13840.52, -64244.97)" xlink:href="#linear-gradient-23"/><linearGradient id="linear-gradient-25" x1="608.43" y1="128.51" x2="561.69" y2="47.56" gradientTransform="translate(-490 -62)" gradientUnits="userSpaceOnUse"><stop offset="0" stop-color="#666465"/><stop offset="0.1" stop-color="#565556"/><stop offset="0.3" stop-color="#3e3d3d"/><stop offset="0.51" stop-color="#2c2c2c"/><stop offset="0.74" stop-color="#212221"/><stop offset="1" stop-color="#1e1f1e"/></linearGradient><linearGradient id="linear-gradient-26" x1="641.33" y1="169.6" x2="641.33" y2="125.12" gradientTransform="translate(-490 -62)" gradientUnits="userSpaceOnUse"><stop offset="0.08" stop-color="#424141"/><stop offset="0.55" stop-color="#403f3f"/><stop offset="0.75" stop-color="#393838"/><stop offset="0.9" stop-color="#2c2c2c"/><stop offset="1" stop-color="#1e1f1e"/></linearGradient><linearGradient id="linear-gradient-27" x1="174.44" y1="-1043.66" x2="175.35" y2="-1044.57" gradientTransform="matrix(76, 0, 0, -49, -13151.17, -51064.18)" gradientUnits="userSpaceOnUse"><stop offset="0" stop-color="#666465"/><stop offset="0.27" stop-color="#575657"/><stop offset="0.78" stop-color="#313131"/><stop offset="1" stop-color="#1e1f1e"/></linearGradient><linearGradient id="linear-gradient-28" x1="175.41" y1="-1024.2" x2="176.34" y2="-1025.13" gradientTransform="matrix(53, 0, 0, -121, -9134.52, -123892.46)" xlink:href="#linear-gradient-27"/><linearGradient id="linear-gradient-29" x1="173.95" y1="-1027.91" x2="174.95" y2="-1028.91" gradientTransform="matrix(79, 0, 0, -94, -13589.18, -96573.37)" xlink:href="#linear-gradient-23"/><linearGradient id="linear-gradient-30" x1="174.31" y1="-1047.38" x2="175.24" y2="-1048.32" gradientTransform="matrix(72, 0, 0, -45, -12541.83, -47122.94)" xlink:href="#linear-gradient-27"/><linearGradient id="linear-gradient-31" x1="174.62" y1="-1041.81" x2="175.54" y2="-1042.72" gradientTransform="matrix(72, 0, 0, -52, -12541.83, -54152.64)" xlink:href="#linear-gradient-27"/><linearGradient id="linear-gradient-32" x1="176.42" y1="-1029.42" x2="177.45" y2="-1029.42" gradientTransform="matrix(45, 0, 0, -87, -7806.77, -89437.6)" xlink:href="#linear-gradient-23"/><linearGradient id="linear-gradient-33" x1="168.16" y1="378.63" x2="168.16" y2="-131.66" gradientUnits="userSpaceOnUse"><stop offset="0.08" stop-color="#424141"/><stop offset="0.44" stop-color="#2b2a2a"/><stop offset="1"/></linearGradient><linearGradient id="linear-gradient-34" x1="10.49" y1="23.93" x2="96.13" y2="23.93" gradientTransform="matrix(1, 0, 0, 1, 0, 0)" xlink:href="#linear-gradient-23"/><linearGradient id="linear-gradient-35" x1="-1236.42" y1="-1807.01" x2="-1143.9" y2="-1822.14" gradientTransform="translate(1728.64 -1408.74) rotate(-101.1)" xlink:href="#linear-gradient-21"/></defs><g id="Layer_2" data-name="Layer 2"><g id="Logos"><rect class="cls-1" x="137.85" width="49.19" height="50.55"/><g class="cls-2"><polygon class="cls-3" points="187.07 32.48 187.05 24.87 167.16 32.29 187.07 32.48"/><polygon class="cls-4" points="172.46 50.52 187.05 50.59 187.07 32.48 167.16 32.3 172.46 50.52"/><polygon class="cls-5" points="187.05 24.87 187.05 0.03 167.14 32.29 187.05 24.87"/><polygon class="cls-6" points="150.68 0 137.85 0.02 137.87 20.9 167.17 32.28 150.68 0"/><polygon class="cls-7" points="167.14 32.26 187.06 0.01 150.7 0.03 167.14 32.26"/><polygon class="cls-8" points="137.87 50.56 172.46 50.55 167.14 32.25 137.87 50.56"/><polygon class="cls-9" points="137.85 20.9 137.85 50.56 167.17 32.28 137.85 20.9"/></g><polygon class="cls-1" points="176.45 191.03 0 14.79 0.07 191.03 176.45 191.03"/><g class="cls-2"><polygon class="cls-10" points="120.86 135.49 104.36 118.99 106.84 144.04 120.86 135.49"/><polygon class="cls-11" points="11.61 39.57 0.03 45.45 0.03 101.07 14.05 104.26 11.61 39.57"/><polygon class="cls-12" points="0.1 191.03 92.27 191.03 106.84 144.04 0.1 191.03"/><polygon class="cls-13" points="106.84 144.04 104.36 118.99 84.33 99 14.04 104.26 106.84 144.04"/><polygon class="cls-14" points="84.33 99 57.68 72.42 14.05 104.25 84.33 99"/><polygon class="cls-15" points="0.06 116.25 0.08 164.66 14.07 104.21 0.06 116.25"/><polygon class="cls-16" points="0.03 101.09 0.05 116.28 14.07 104.25 0.03 101.09"/><polygon class="cls-17" points="155.04 169.65 130.74 145.38 106.84 144.04 155.04 169.65"/><polygon class="cls-18" points="130.74 145.38 120.86 135.49 106.84 144.04 130.74 145.38"/><polygon class="cls-19" points="176.41 191.01 155.03 169.63 106.84 144.04 92.27 191.03 176.41 191.01"/><polygon class="cls-20" points="14.05 104.26 57.7 72.42 40.65 55.39 11.62 39.55 14.05 104.26"/><polygon class="cls-21" points="11.61 39.55 40.62 55.37 0 14.8 0.03 45.45 11.61 39.55"/></g><polygon class="cls-22" points="106.82 144.02 14.05 104.28 0.11 164.62 0.06 191.03 106.82 144.02"/><polygon class="cls-23" points="187.03 67 120.84 66.98 120.85 0.04 10.46 0.07 187.04 177.11 187.03 67"/><polygon class="cls-24" points="81.1 47.83 120.85 24.83 120.84 0.04 96.14 0.06 81.1 47.83"/><polygon class="cls-25" points="178.31 155.02 187.03 162.68 187.01 150.97 178.31 155.02"/><polygon class="cls-26" points="67.52 57.26 84.55 74.34 81.11 47.77 67.52 57.26"/><polygon class="cls-27" points="120.84 66.96 120.84 65.1 81.12 47.86 84.55 74.32 104.61 94.44 173.66 88.89 123.88 67 120.84 66.96"/><polygon class="cls-28" points="120.84 65.11 120.84 24.7 81.1 47.85 120.84 65.11"/><polygon class="cls-29" points="179.06 67 123.59 66.98 173.58 88.85 179.06 67"/><polygon class="cls-30" points="104.61 94.44 131.95 121.85 173.53 88.89 104.61 94.44"/><polygon class="cls-31" points="173.57 88.87 187.03 77.05 186.99 67.01 179.06 67 173.57 88.87"/><polygon class="cls-32" points="186.94 91.93 186.94 77.03 173.57 88.89 186.94 91.93"/><polygon class="cls-33" points="31.45 21.09 56.99 46.68 81.11 47.78 31.45 21.09"/><polygon class="cls-34" points="56.99 46.68 67.52 57.27 81.08 47.8 56.99 46.68"/><polygon class="cls-35" points="173.58 88.86 131.95 121.84 149.21 139.16 178.31 155.04 173.58 88.86"/><polygon class="cls-36" points="178.34 155.04 149.26 139.2 187.06 177.11 187.03 162.69 178.34 155.04"/><polygon class="cls-37" points="96.13 0.06 10.49 0.09 31.46 21.1 81.11 47.8 96.13 0.06"/><polygon class="cls-38" points="173.58 88.89 178.33 155.02 187.01 150.97 187.04 91.96 173.58 88.89"/></g></g></svg>